<svg width="64" height="64" viewBox="0 0 64 64" xmlns="http://www.w3.org/2000/svg">
  <!-- Interceptor ship - agile, fast fighter -->
  <!-- Main body -->
  <path d="M 32 14 L 38 38 L 32 40 L 26 38 Z" fill="#9370DB" stroke="#4B0082" stroke-width="2"/>
  <!-- Nose cone -->
  <path d="M 32 14 L 36 20 L 32 22 L 28 20 Z" fill="#BA55D3" stroke="#4B0082" stroke-width="1"/>
  <!-- Cockpit -->
  <ellipse cx="32" cy="20" rx="3" ry="4" fill="#DDA0DD" stroke="#4B0082" stroke-width="1"/>
  <!-- Delta wings -->
  <path d="M 26 26 L 14 34 L 18 36 L 26 30 Z" fill="#8B7AB8" stroke="#4B0082" stroke-width="1.5"/>
  <path d="M 38 26 L 50 34 L 46 36 L 38 30 Z" fill="#8B7AB8" stroke="#4B0082" stroke-width="1.5"/>
  <!-- Vertical stabilizers -->
  <path d="M 30 32 L 28 38 L 30 36 Z" fill="#6A5ACD" stroke="#4B0082" stroke-width="1"/>
  <path d="M 34 32 L 36 38 L 34 36 Z" fill="#6A5ACD" stroke="#4B0082" stroke-width="1"/>
  <!-- Engine glow -->
  <ellipse cx="32" cy="40" rx="5" ry="2" fill="#9400D3" opacity="0.8"/>
  <!-- Speed lines -->
  <line x1="20" y1="28" x2="24" y2="28" stroke="#4B0082" stroke-width="1" opacity="0.5"/>
  <line x1="40" y1="28" x2="44" y2="28" stroke="#4B0082" stroke-width="1" opacity="0.5"/>
  <!-- Details -->
  <circle cx="32" cy="25" r="1.5" fill="#FFD700"/>
</svg>
