<svg width="200" height="200" xmlns="http://www.w3.org/2000/svg">
  <!-- Floating biological alien spaceship with tentacles -->

  <!-- Main body (pulsating organic mass) -->
  <ellipse cx="100" cy="90" rx="45" ry="38" fill="#4a1a4a" opacity="0.9"/>
  <ellipse cx="100" cy="90" rx="38" ry="32" fill="#6a2a6a" opacity="0.8"/>
  <ellipse cx="95" cy="85" rx="25" ry="20" fill="#8a4a8a" opacity="0.7"/>

  <!-- Eye-like organs -->
  <ellipse cx="90" cy="85" rx="8" ry="12" fill="#aa0000"/>
  <circle cx="90" cy="85" r="5" fill="#ff0000"/>
  <circle cx="88" cy="83" r="3" fill="#ffffff" opacity="0.6"/>

  <ellipse cx="110" cy="90" rx="7" ry="10" fill="#aa0000"/>
  <circle cx="110" cy="90" r="4" fill="#ff0000"/>
  <circle cx="109" cy="88" r="2" fill="#ffffff" opacity="0.6"/>

  <!-- Glowing core -->
  <circle cx="100" cy="95" r="8" fill="#ff00ff" opacity="0.5"/>
  <circle cx="100" cy="95" r="5" fill="#ffaaff" opacity="0.7"/>

  <!-- Tentacles (8 tentacles) -->
  <!-- Top Left Tentacle -->
  <path d="M 75 70 Q 60 50, 50 40 Q 48 38, 50 35"
        stroke="#6a2a6a" stroke-width="8" fill="none" stroke-linecap="round"/>
  <path d="M 75 70 Q 60 50, 50 40 Q 48 38, 50 35"
        stroke="#8a4a8a" stroke-width="5" fill="none" stroke-linecap="round"/>

  <!-- Top Right Tentacle -->
  <path d="M 125 70 Q 140 50, 150 40 Q 152 38, 150 35"
        stroke="#6a2a6a" stroke-width="8" fill="none" stroke-linecap="round"/>
  <path d="M 125 70 Q 140 50, 150 40 Q 152 38, 150 35"
        stroke="#8a4a8a" stroke-width="5" fill="none" stroke-linecap="round"/>

  <!-- Left Tentacle -->
  <path d="M 60 90 Q 35 85, 20 90 Q 15 92, 12 95"
        stroke="#6a2a6a" stroke-width="9" fill="none" stroke-linecap="round"/>
  <path d="M 60 90 Q 35 85, 20 90 Q 15 92, 12 95"
        stroke="#8a4a8a" stroke-width="6" fill="none" stroke-linecap="round"/>

  <!-- Right Tentacle -->
  <path d="M 140 90 Q 165 85, 180 90 Q 185 92, 188 95"
        stroke="#6a2a6a" stroke-width="9" fill="none" stroke-linecap="round"/>
  <path d="M 140 90 Q 165 85, 180 90 Q 185 92, 188 95"
        stroke="#8a4a8a" stroke-width="6" fill="none" stroke-linecap="round"/>

  <!-- Bottom Left Tentacle -->
  <path d="M 70 115 Q 50 135, 40 150 Q 38 155, 35 160"
        stroke="#6a2a6a" stroke-width="10" fill="none" stroke-linecap="round"/>
  <path d="M 70 115 Q 50 135, 40 150 Q 38 155, 35 160"
        stroke="#8a4a8a" stroke-width="7" fill="none" stroke-linecap="round"/>

  <!-- Bottom Right Tentacle -->
  <path d="M 130 115 Q 150 135, 160 150 Q 162 155, 165 160"
        stroke="#6a2a6a" stroke-width="10" fill="none" stroke-linecap="round"/>
  <path d="M 130 115 Q 150 135, 160 150 Q 162 155, 165 160"
        stroke="#8a4a8a" stroke-width="7" fill="none" stroke-linecap="round"/>

  <!-- Bottom Center Left Tentacle -->
  <path d="M 85 120 Q 75 145, 70 165 Q 68 170, 65 175"
        stroke="#6a2a6a" stroke-width="9" fill="none" stroke-linecap="round"/>
  <path d="M 85 120 Q 75 145, 70 165 Q 68 170, 65 175"
        stroke="#8a4a8a" stroke-width="6" fill="none" stroke-linecap="round"/>

  <!-- Bottom Center Right Tentacle -->
  <path d="M 115 120 Q 125 145, 130 165 Q 132 170, 135 175"
        stroke="#6a2a6a" stroke-width="9" fill="none" stroke-linecap="round"/>
  <path d="M 115 120 Q 125 145, 130 165 Q 132 170, 135 175"
        stroke="#8a4a8a" stroke-width="6" fill="none" stroke-linecap="round"/>

  <!-- Suction cups / nodes on tentacles -->
  <circle cx="50" cy="40" r="4" fill="#aa00aa" opacity="0.7"/>
  <circle cx="150" cy="40" r="4" fill="#aa00aa" opacity="0.7"/>
  <circle cx="20" cy="90" r="5" fill="#aa00aa" opacity="0.7"/>
  <circle cx="180" cy="90" r="5" fill="#aa00aa" opacity="0.7"/>
  <circle cx="40" cy="150" r="5" fill="#aa00aa" opacity="0.7"/>
  <circle cx="160" cy="150" r="5" fill="#aa00aa" opacity="0.7"/>
  <circle cx="70" cy="165" r="4" fill="#aa00aa" opacity="0.7"/>
  <circle cx="130" cy="165" r="4" fill="#aa00aa" opacity="0.7"/>

  <!-- Bio-luminescent veins -->
  <path d="M 85 85 L 75 75" stroke="#ff00ff" stroke-width="2" opacity="0.5"/>
  <path d="M 115 90 L 125 80" stroke="#ff00ff" stroke-width="2" opacity="0.5"/>
  <path d="M 95 100 L 90 110" stroke="#ff00ff" stroke-width="2" opacity="0.5"/>
  <path d="M 105 100 L 110 110" stroke="#ff00ff" stroke-width="2" opacity="0.5"/>

  <!-- Dripping bio-matter -->
  <ellipse cx="95" cy="125" rx="3" ry="5" fill="#4a1a4a" opacity="0.6"/>
  <ellipse cx="105" cy="125" rx="3" ry="5" fill="#4a1a4a" opacity="0.6"/>
</svg>
